<?xml version="1.0" encoding="UTF-8" standalone="no"?>
<!DOCTYPE svg PUBLIC "-//W3C//DTD SVG 1.1//EN" "http://www.w3.org/Graphics/SVG/1.1/DTD/svg11.dtd">
<svg width="100%" height="100%" viewBox="0 0 736 736" version="1.1" xmlns="http://www.w3.org/2000/svg" xmlns:xlink="http://www.w3.org/1999/xlink" xml:space="preserve" xmlns:serif="http://www.serif.com/" style="fill-rule:evenodd;clip-rule:evenodd;stroke-linejoin:round;stroke-miterlimit:2;">
    <g id="Background">
        <path id="Path-1" serif:id="Path 1" d="M506.17,114.79C505.44,115.13 502.74,116.75 500.17,118.39C497.6,120.02 492.63,123.87 489.11,126.93C485.6,129.99 479.25,136.55 474.99,141.5C470.74,146.45 461.68,157.93 454.87,167C448.06,176.07 438.85,188.9 434.4,195.5C429.95,202.1 423.8,211.77 420.74,217C417.69,222.22 412.57,231.9 409.38,238.5C406.19,245.1 403.56,250.61 403.54,250.74C403.52,250.88 400.12,250.51 396,249.94C391.87,249.36 380.4,248.87 370.5,248.85C358.7,248.82 348.54,249.39 341,250.49C334.67,251.41 326.35,253.03 322.5,254.08C318.65,255.14 314.82,256 314,255.99C313.17,255.99 311.43,254.08 310.12,251.74C308.8,249.41 303.56,241.2 298.46,233.5C293.36,225.8 285.4,214.77 280.77,209C276.14,203.22 265.87,191.55 257.93,183.05C249.99,174.55 237.71,162.4 230.64,156.05C223.56,149.7 215.91,143.24 213.64,141.7C211.36,140.15 207.36,137.79 204.75,136.45C202.14,135.1 198.74,134 197.2,134C195.66,134 193.85,134.56 193.18,135.25C192.51,135.94 191.97,137.29 191.98,138.25C191.99,139.21 192.34,139.95 192.75,139.88C193.16,139.82 194.29,139.82 195.25,139.88C196.21,139.95 187.076,151.491 189.386,154.651C191.696,157.811 227.531,250.492 223.961,248.772C220.381,247.062 221.037,272.294 215.817,272.654C214.261,272.758 207.29,276.152 203.935,277.243C196.013,279.819 205.918,287.223 205.532,287.518C204.982,287.938 191.071,288.737 191.201,288.907C191.321,289.077 192.272,295.778 189.952,297.278C187.622,298.768 165.998,350.672 162.968,355.072C159.928,359.472 156.62,370.45 153.24,376.5C149.87,382.55 145.34,391.32 143.19,396C141.04,400.68 137.47,409.45 135.25,415.5C133.04,421.55 130.1,431.23 128.72,437C127.33,442.77 125.67,451.77 125.03,457C124.39,462.23 123.72,467.85 123.55,469.5C123.37,471.15 123.18,473.18 123.11,474C123.01,475.3 119.38,475.48 96.25,475.36L69.5,475.21C100.5,476.4 112.38,477.14 115.89,477.62C119.41,478.1 122.41,478.95 122.57,479.5C122.73,480.05 123.11,486.8 123.43,494.5C123.74,502.2 124.4,508.95 124.9,509.5C125.4,510.05 126.1,512.75 126.46,515.5C126.82,518.25 127.31,521.51 127.55,522.75C127.97,524.82 127.04,525.32 115.75,529.07C109.01,531.32 97.2,536.22 89.5,539.98C81.8,543.74 74.6,547.55 73.5,548.45C72.4,549.35 74.2,548.76 77.5,547.15C80.8,545.54 89.8,541.53 97.5,538.24C105.2,534.95 115.21,531.08 119.75,529.63C124.29,528.18 128.11,526.98 128.25,526.96C128.39,526.94 130.47,530.87 132.87,535.71C135.28,540.54 136.25,556.93 133.5,559.56C130.75,562.2 128.16,564.27 127.75,564.18C127.34,564.08 125.58,567.04 123.84,570.75C121.96,574.77 120.5,579.72 120.23,583C119.98,586.02 120.26,590.3 120.84,592.5C121.43,594.7 122.95,598.08 124.23,600C125.54,601.96 128.96,604.8 132.03,606.45L137.5,609.4L598.5,609.5C606.25,605.43 610.1,602.5 612.06,600.37C614.02,598.24 616.22,594.7 616.95,592.5C617.78,589.98 618.1,585.72 617.82,581C617.51,575.82 616.58,571.8 614.82,568C613.42,564.98 610.08,560.29 607.39,557.6C604.7,554.9 600.79,551.53 598.71,550.1C596.62,548.67 594.94,547.16 594.96,546.75C594.98,546.34 597.41,543.19 600.35,539.75C603.29,536.31 607.12,530.46 608.85,526.75C610.58,523.04 612.34,519.81 612.75,519.57C613.16,519.33 618.23,520.8 624,522.82C629.77,524.84 643.73,531.07 655,536.66C666.27,542.26 674.6,546.17 673.5,545.35C672.4,544.54 665.87,540.77 659,536.97C652.12,533.16 639.52,526.85 631,522.92C622.48,519 615.38,515.73 615.23,515.65C615.08,515.57 615.48,513.25 616.12,510.5C616.77,507.75 617.9,504.26 618.65,502.75C619.39,501.24 620.18,498.54 620.4,496.75C620.61,494.96 621.26,492.15 621.83,490.5C622.4,488.85 623.2,483.45 623.61,478.5C624.02,473.55 624.27,468.94 624.18,468.25C624.07,467.5 625.69,466.75 628.25,466.37C630.59,466.03 639.48,465.15 648,464.43L663.5,463.11C641.8,463.86 633.02,464.33 630,464.64L624.5,465.22C623.27,452.26 622.77,447.15 622.59,445.5C622.42,443.85 621.94,440.48 621.54,438C621.13,435.52 619.74,429.45 618.45,424.5C617.16,419.55 614.69,411.45 612.97,406.5C611.25,401.55 607.71,393 605.1,387.5C602.49,382 596.17,370.52 591.05,362C585.93,353.48 577.167,339.583 573.037,333.813C568.907,328.043 560.182,311.598 556.482,307.688C552.792,303.778 546.04,301.94 546.02,301.25C546.01,300.56 544.54,298.82 542.75,297.38C540.96,295.93 535.11,288.731 529.75,285.231C524.39,281.721 534.925,270.727 529.985,268.387C525.035,266.047 522.099,264.192 524.309,263.052C525.679,262.342 524.081,247.406 525.181,246.326C527.171,244.376 515.6,127.121 516.38,127.121C517.15,127.121 516.23,119.32 516.5,118.5C516.77,117.67 516.33,116.32 515.5,115.5C514.67,114.67 512.54,114.04 510.75,114.08C508.96,114.12 506.9,114.44 506.17,114.79Z" style="fill:rgb(23,29,31);fill-rule:nonzero;"/>
        <path id="Path-2" serif:id="Path 2" d="M245.5,170C249.9,174.41 253.72,178.02 254,178.02C254.28,178.02 251.03,174.41 246.8,170.01C242.56,165.6 238.73,162 238.3,161.99C237.86,161.99 241.1,165.59 245.5,170Z" style="fill:rgb(248,245,243);fill-rule:nonzero;"/>
        <path id="Path-3" serif:id="Path 3" d="M546.93,176.25C540.875,159.201 495.03,244.907 495.03,244.907C495.03,244.907 488.652,252.925 487.452,253.395C486.632,253.725 489.83,254.02 489,254.85C487.66,256.2 487.77,256.28 490,255.6C491.38,255.19 496.1,254.25 500.5,253.53C504.9,252.8 511.2,251.91 514.5,251.55L520.5,250.88C516.63,253.84 510.55,256.87 504.5,259.52C498.45,262.17 493.07,264.71 492.55,265.17C492.03,265.63 493.94,266 496.8,266C499.66,266 505.26,266.65 509.25,267.43C513.24,268.22 518.3,269.54 520.5,270.37L524.5,271.87C515.98,271.67 511.36,271.81 508.75,272.06C506.13,272.3 504,272.73 504,273C504.01,273.27 507.72,275.4 512.25,277.71C516.79,280.03 525.23,285.02 531,288.81C536.78,292.6 542.7,297 544.16,298.6C545.62,300.19 549.44,304.45 552.66,308.07C555.87,311.68 561.65,318.75 565.5,323.78C570.19,329.91 572.764,334.579 573.434,333.899C574.054,333.269 574.48,319.89 574.45,301.7C574.42,279.04 574.01,269.81 572.63,260.5C571.65,253.9 570.54,246.58 570.17,244.24C569.8,241.89 569.16,239.98 568.75,239.99C568.34,239.99 568.23,239.55 568.5,239C568.78,238.45 568.21,234.17 567.25,229.49C566.29,224.81 565.28,220.99 565,220.99C564.73,221 564.39,219.43 564.25,217.5C564.11,215.58 563.67,213.44 563.28,212.75C562.88,212.06 562.39,210.38 562.2,209C562.01,207.63 561.53,206.28 561.13,206C560.73,205.72 560.35,204.6 560.28,203.5C560.21,202.4 559.6,200.15 558.91,198.5C558.23,196.85 557.75,195.16 557.84,194.75C557.93,194.34 557.55,194 557,194C556.45,194 556.05,193.44 556.12,192.75C556.18,192.06 556.18,190.71 556.12,189.75C556.04,188.64 555.55,188.27 554.77,188.75C553.9,189.28 553.75,188.99 554.27,187.75C554.67,186.79 554.55,185.78 554,185.5C553.717,185.356 552.227,180.865 552.227,180.865C552.227,180.865 549.835,178.852 549.66,178.25C549.21,176.72 547.405,177.588 546.93,176.25ZM158.51,233.25C158.78,235.31 158.55,237.22 158,237.5C157.45,237.78 157.23,239.35 157.5,241C157.78,242.67 157.56,244 157,244C156.45,244 156,245.46 156,247.25C156,249.04 155.8,252.3 155.55,254.5C155.29,256.7 154.4,266.15 153.57,275.5C152.73,284.85 152.03,298.24 152.02,305.25C152.01,312.26 152.48,323.74 153.07,330.75C153.66,337.76 154.78,347.55 155.57,352.5C156.36,357.45 157.16,362.18 157.35,363C157.54,363.82 158.32,364.5 159.1,364.5C159.87,364.5 160.39,363.94 160.25,363.25C160.11,362.56 160.34,362.02 160.75,362.04C161.16,362.06 163.26,359.47 165.41,356.29C167.56,353.1 173.18,345.58 177.91,339.57C182.63,333.55 188.98,326.16 192,323.14L197.5,317.65C190.14,323.35 187.78,324.77 187.5,324.5C187.23,324.23 191.84,320.04 197.75,315.2C203.66,310.37 211.54,304.29 215.25,301.7C218.96,299.12 222,296.89 222,296.75C222.01,296.61 220.09,296.38 217.75,296.24C215.41,296.1 211.14,296.33 208.27,296.74C205.39,297.16 203.02,297.39 203.02,297.25C203.01,297.11 206.04,295.52 209.75,293.7C213.46,291.89 219.65,289.55 223.5,288.5C230.16,286.7 230.35,286.56 227.5,285.73C225.85,285.25 221.35,284.2 217.5,283.41C213.65,282.62 210.05,281.56 209.5,281.05C208.88,280.48 211.35,279.87 216,279.43C220.13,279.04 224.63,278.37 226,277.95C227.38,277.52 227.94,277.13 227.25,277.09C226.56,277.04 223.86,274.72 221.25,271.93C218.64,269.15 216.5,266.56 216.5,266.18C216.5,265.81 214.7,263.56 212.5,261.2C210.3,258.83 205.58,254.69 202,251.99C198.43,249.28 194.49,247.06 193.25,247.04C192.01,247.02 176.959,237.443 175.309,236.173C173.659,234.903 170.74,234.55 169.82,233.61C168.89,232.67 167.31,232.04 166.32,232.2C165.32,232.37 159.343,226.295 159.253,227.895C159.183,229.105 159.53,233.73 158.91,232C158.2,229.97 158.12,230.21 158.51,233.25Z" style="fill:rgb(222,124,82);fill-rule:nonzero;"/>
        <path id="Path-4" serif:id="Path 4" d="M509.39,124.25C507.18,126.59 504.26,130.3 502.9,132.5C501.54,134.7 499.46,138.53 498.28,141C497.09,143.47 495.35,147.3 494.41,149.5C493.47,151.7 491.85,155.97 490.81,159C489.77,162.03 486.96,171.03 484.56,179C482.17,186.97 479.65,195.97 478.98,199C478.3,202.03 477.38,205.63 476.92,207C476.47,208.38 475.58,211.53 474.96,214C474.33,216.47 473.75,219.78 473.66,221.35C473.57,222.92 473.16,224.38 472.75,224.6C472.34,224.82 472,227.14 471.99,229.75C471.99,232.36 471.58,236.07 471.07,238C470.57,239.93 469.83,244.43 469.43,248L468.71,254.5C477.07,246.53 483.1,241.39 487.5,237.93C491.9,234.47 495.61,231.27 495.75,230.82C495.89,230.37 496.45,230 497,230C497.63,230 495.64,235.63 495.5,237C495.35,238.38 495.18,239.84 495.11,240.25C495.05,240.66 494.55,240.78 494,240.5C493.45,240.22 492.61,240.79 492.14,241.75C491.66,242.71 491.43,244.06 491.64,244.75C491.84,245.44 485.26,252.74 483.75,254.96C482.24,257.18 481.45,259 482,259C482.55,259 483,258.55 483,258C483,257.45 489.16,256.9 488.75,256.58C488.34,256.26 488.56,255.4 489.25,254.67C489.94,253.94 491.18,253.08 492,252.75C493.2,252.28 493.15,252.14 491.75,252.08C490.79,252.04 489.727,251.573 489.98,251.25C491.236,249.648 495.378,249.517 495.378,249.517C495.378,249.517 512.663,219.314 512.663,218.494C512.663,217.674 525.59,199.76 527.54,198.25C529.48,196.74 533.76,192.24 537.04,188.25C540.32,184.26 543.01,180.44 543.02,179.75C543.033,178.93 543.337,179.013 543.93,180C544.42,180.82 544.54,182.18 544.19,183C543.75,184.013 543.943,184.263 544.77,183.75C545.55,183.28 545.79,181.8 545.43,179.75C544.95,177 545.18,176.46 546.93,176.25C548.43,176.07 549.14,176.68 549.5,178.5C549.77,179.88 550.45,181 551,181C551.55,181 552.25,182.01 552.57,183.25C552.88,184.49 553.35,185.28 553.61,185C553.88,184.72 551.76,178.65 548.9,171.5C546.04,164.35 542.05,155.12 540.05,151C538.04,146.87 534.13,140.12 531.36,136C528.58,131.87 524.11,126.57 521.41,124.22C518.71,121.86 517.303,117.289 516.453,117.309C515.603,117.319 511.6,121.91 509.39,124.25ZM188.85,143.84C186.64,146.4 182.74,152.32 180.19,157C177.64,161.68 174.11,169.32 172.36,174C170.6,178.68 167.79,187.68 166.12,194C164.44,200.32 162.43,208.87 161.64,213C160.85,217.12 159.95,223.65 159.65,227.5C159.34,231.35 159.29,233.71 159.54,232.75C159.96,231.15 160.15,231.13 161.75,232.58C162.71,233.45 163.73,233.79 164,233.33C164.28,232.87 165.29,232.39 166.25,232.25C167.21,232.11 168.79,232.75 169.75,233.66C170.71,234.57 172.85,236.36 174.5,237.63C176.15,238.9 178.18,239.96 179,239.97C179.83,239.98 182.86,241.57 185.75,243.5C188.64,245.42 192.01,247.02 193.25,247.04C194.49,247.06 198.43,249.28 202,251.99C205.58,254.69 210.3,258.83 212.5,261.2C214.7,263.56 216.5,265.81 216.5,266.18C216.5,266.56 218.64,269.15 221.25,271.93C223.86,274.72 226.56,277.04 227.25,277.1C227.94,277.15 227.38,277.57 226,278.02C224.53,278.5 227.21,278.62 232.5,278.32C237.45,278.04 241.61,277.74 241.74,277.65C241.88,277.57 237.94,273.79 232.99,269.25C228.05,264.71 224.11,260.78 224.25,260.5C224.39,260.23 227.65,261.29 231.5,262.86C235.35,264.44 241.43,267.13 245,268.84C248.58,270.56 251.95,271.97 252.5,271.99C253.14,272 253.27,269.2 252.86,264.26C252.5,259.99 250.77,251.55 249,245.5C247.23,239.45 244.63,232.25 243.2,229.5C241.78,226.75 240.47,223.6 240.28,222.5C240.09,221.4 238.09,215.78 235.85,210C233.6,204.22 230.64,196.57 229.28,193C227.91,189.43 225.17,183.35 223.18,179.5C221.2,175.65 217.42,169.12 214.79,165C212.16,160.87 209.44,156.66 208.75,155.63C208.06,154.6 207.03,153.25 206.45,152.63C205.87,152.01 203.59,149.03 201.39,146C199.18,142.97 196.36,140.2 195.13,139.84C193.31,139.31 192.12,140.07 188.85,143.84ZM490,265.5C487.7,266.82 488.17,266.92 496,266.77C503.05,266.64 503.44,266.56 498.25,266.31C494.54,266.12 492.19,265.59 492.46,265C492.72,264.45 492.83,264.02 492.71,264.04C492.6,264.05 491.38,264.71 490,265.5ZM251,609.75C260.08,609.91 274.48,609.91 283,609.75C291.53,609.58 284.1,609.45 266.5,609.45C248.9,609.45 241.93,609.58 251,609.75ZM367.5,609.74C371.9,609.93 378.65,609.93 382.5,609.74C386.35,609.55 382.75,609.4 374.5,609.4C366.25,609.4 363.1,609.56 367.5,609.74ZM154.5,610.74C157.25,610.94 161.98,610.94 165,610.74C168.03,610.54 165.78,610.37 160,610.37C154.23,610.37 151.75,610.54 154.5,610.74Z" style="fill:rgb(170,77,54);fill-rule:nonzero;"/>
        <path id="Path-5" serif:id="Path 5" d="M455.635,381.176C453.685,383.166 454.2,385.4 455,387C455.55,388.1 456.9,389.45 458,390C459.4,390.7 460.83,390.62 462.75,389.74C464.64,388.88 465.58,387.63 465.75,385.74C465.92,383.83 465.693,382.099 464.123,381.049C462.883,380.219 461.158,379.786 460.438,379.786C459.728,379.796 456.985,379.806 455.635,381.176ZM552.742,384.252C552.742,384.252 538.647,406.195 537.997,408.125C537.357,410.055 532.862,436.086 531.242,438.286C529.622,440.486 486.228,462.509 484.598,461.139C482.968,459.759 444.81,455.641 442.58,452.621C440.36,449.601 424.618,442.821 422.578,438.701C420.538,434.571 418.823,431.19 418.813,431.74C418.813,432.29 416.763,430.699 415.893,429.599C414.413,427.729 412.795,426.289 413.335,431.889C413.655,435.189 415.87,444.2 417.02,447.5C418.17,450.8 421.23,456.62 423.81,460.44C426.6,464.58 431.13,469.47 435,472.52C438.57,475.35 443.07,478.61 445,479.77C446.93,480.93 451.65,483.07 455.5,484.53C459.35,485.99 465.76,487.82 469.75,488.59C473.74,489.37 480.82,490 485.5,490C490.18,490 497.49,489.29 501.75,488.43C506.01,487.57 513.33,485.19 518,483.15C522.67,481.12 529.2,477.39 532.5,474.88C535.8,472.37 540.87,467.66 543.78,464.41C546.68,461.16 550.58,456.02 552.44,453C554.31,449.98 556.97,444.13 558.37,440C559.77,435.88 561.21,429.35 561.57,425.5C561.94,421.65 561.75,415.35 561.16,411.5C560.57,407.65 559.01,401.13 557.69,397C556.8,394.421 555.865,391.828 554.827,389.212C554.175,387.568 553.473,385.915 552.742,384.252ZM279.841,395.655C278.781,396.215 277.688,398.771 277.778,399.841C277.868,400.911 278.958,402.823 280.198,403.443C281.438,404.063 283.29,403.97 284.25,403.63C285.21,403.28 286.3,402.21 286.66,401.25C287.1,400.06 287.53,397.443 285.9,396.233C284.57,395.243 280.901,395.095 279.841,395.655ZM184.86,416.5C184.27,418.7 183.17,423.43 182.41,427C181.66,430.57 181.03,436.43 181.02,440C181.02,443.57 181.91,450.21 183.01,454.75C184.1,459.29 186.54,466.04 188.42,469.75C190.29,473.46 194.04,478.98 196.73,482C199.43,485.02 204.76,489.48 208.57,491.91C212.38,494.33 218.43,497.33 222,498.57C225.58,499.81 232.33,501.38 237,502.06C242.01,502.78 249.19,503.04 254.5,502.68C259.45,502.34 267.1,501.14 271.5,500.01C275.9,498.88 282.43,496.58 286,494.9C289.58,493.22 295.31,489.86 298.75,487.42C302.19,484.99 307.33,480.19 310.17,476.75C313.02,473.31 316.062,466.776 318.67,463.25C319.814,461.704 324.319,445.235 324.319,445.235C324.467,444.911 324.909,441.432 324.909,441.432C324.909,441.432 325.233,436.579 325.235,435.756C325.237,434.508 325.203,432.283 325.203,432.283C325.203,432.283 324.881,427.818 324.109,425.654C324.109,425.654 318.692,450.908 318.443,451.388C317.793,452.648 314.824,458.416 313.584,459.696C312.344,460.966 299.051,471.384 296.441,473.444C293.831,475.504 280.19,480.176 277.44,480.926C274.39,481.746 222.601,468.744 220.381,466.064C218.161,463.374 203.069,410.139 203.069,410.139L187.514,407.611L184.86,416.5Z" style="fill:white;fill-rule:nonzero;"/>
        <path id="Path-6" serif:id="Path 6" d="M537.547,367.127C539.437,369.607 543.475,374.445 544.665,376.645C545.845,378.845 547.923,382.056 549.073,384.806C550.593,388.436 552.14,391.55 552.1,397C552.07,401.13 551.4,407.88 550.61,412C549.82,416.13 548.19,422.2 546.99,425.5C545.78,428.8 544.11,432.85 543.26,434.5C542.41,436.15 541.42,437.73 541.06,438C540.7,438.27 539.35,440.07 538.06,442C536.77,443.93 532.07,449.09 527.61,453.49C523.15,457.88 520.85,460.5 522.5,459.32C524.15,458.14 527.55,455.22 530.06,452.83C532.56,450.45 535.94,446.7 537.56,444.5C539.18,442.3 541.3,439.6 542.27,438.5C543.24,437.4 544.03,435.94 544.02,435.25C544.01,434.56 544.34,434 544.75,434C545.16,434 546.44,431.41 547.59,428.25C548.73,425.09 550.2,420.93 550.84,419C551.49,417.07 552.48,411.68 553.05,407C553.63,402.32 554.41,396.37 554.8,393.78C555.3,390.39 553.927,388.59 553.027,388.21C552.337,387.92 553.1,387.21 553.23,386.25C553.35,385.29 551.89,381.88 549.98,378.67C548.06,375.46 544.899,370.586 542.573,367.458C540.655,364.877 535.187,361.17 535.187,361.17C535.187,361.17 535.765,364.791 537.547,367.127ZM223.5,367.9C220.2,369.45 214.69,372.8 211.25,375.36C207.81,377.91 202.52,383.04 199.48,386.75C196.44,390.46 192.41,396.65 190.51,400.5C188.62,404.35 186.94,408.63 186.78,410C186.5,412.46 186.63,412.5 194.5,412.8L202.5,413.1C204.77,401.3 207.12,394.86 210.05,389C213.78,381.53 216.21,378.16 221.4,373.25C225.03,369.81 229.01,366.58 230.25,366.06C231.49,365.55 231.82,365.12 231,365.11C230.18,365.1 226.8,366.36 223.5,367.9ZM413.07,417.048C412.64,417.428 412.79,422.75 412.93,426.92C413.11,431.89 413.44,433.64 413.9,432C414.55,429.67 414.64,429.63 415.32,431.5C415.78,432.77 418.273,433.345 418.966,432.853C419.549,432.439 418.652,425.136 418.652,425.136C418.652,425.136 419.907,419.036 415.911,417.491C412.321,416.102 413.5,416.678 413.07,417.048ZM428.19,451.5C430.55,454.8 433.83,458.72 435.49,460.22C437.14,461.72 438.84,462.95 439.25,462.97C439.66,462.99 437.64,460.63 434.75,457.73C431.86,454.83 428.24,450.9 426.71,448.98C425.17,447.07 425.84,448.2 428.19,451.5ZM214.66,461.18C215.12,462.1 217.64,465.37 220.25,468.43C222.86,471.49 225.22,473.77 225.5,473.5C225.77,473.23 224.53,471.54 222.73,469.75C220.92,467.96 218.18,464.93 216.63,463C215.08,461.07 214.2,460.26 214.66,461.18ZM299.33,478.32C297.78,479.59 295.03,481.28 293.24,482.07C291.45,482.86 290.1,483.61 290.24,483.75C290.38,483.89 292.07,483.34 294,482.52C295.92,481.7 298.85,479.9 300.5,478.52C302.15,477.14 303.2,476.01 302.83,476C302.47,476 300.89,477.04 299.33,478.32Z" style="fill:rgb(248,245,243);fill-rule:nonzero;"/>
        <path id="Path-7" serif:id="Path 7" d="M551.09,395.5C551.05,397.7 550.72,402.43 550.37,406C550.01,409.57 549.98,412.27 550.3,412C550.62,411.73 551.29,408.12 551.79,404C552.29,399.87 552.35,395.37 551.93,394C551.28,391.87 551.16,392.09 551.09,395.5ZM549.12,415.25C549.05,416.21 548.06,419.36 546.9,422.25C545.75,425.14 544.03,429.07 543.09,431C541.48,434.28 541.09,434.49 536.94,434.31C534.5,434.2 531.15,433.57 529.5,432.9C527.85,432.23 525.71,431.76 524.75,431.84C523.79,431.93 522.21,431.59 521.25,431.1C519.87,430.38 518.05,431.53 512.54,436.6C508.61,440.2 502.28,444.67 498.04,446.84C493.26,449.28 487.75,451.16 483,451.97C478.77,452.69 472.99,452.98 469.75,452.62C466.59,452.28 461.86,451.27 459.25,450.37C456.64,449.48 452.14,447.23 449.25,445.37C446.36,443.52 441.51,439.41 438.48,436.25C435.44,433.09 432.98,430.27 433.01,430C433.04,429.73 432.097,426.935 430.967,425.565C429.837,424.185 429.328,423.514 429.348,424.204C429.368,424.894 427.731,426.032 426.911,426.032C426.081,426.032 422.838,425.594 422.128,424.904C421.078,423.904 418.071,426.237 418.121,427.847C418.161,428.947 419.46,431.13 418.77,431.9C417.78,432.99 421.02,438.91 422.26,441.25C423.5,443.59 426.38,447.98 428.65,451C430.92,454.02 434.56,458.07 436.74,460C438.91,461.93 441.55,463.99 442.6,464.59C443.64,465.2 445.4,466.17 446.5,466.76C447.6,467.35 450.07,468.5 452,469.32C453.92,470.14 458.65,471.59 462.5,472.53C467.77,473.83 471.85,474.11 479,473.68C484.22,473.37 490.75,472.7 493.5,472.19C496.25,471.68 500.3,470.48 502.5,469.53C504.7,468.58 507.62,467.28 509,466.65C510.37,466.02 511.72,465.27 512,464.99C512.27,464.71 514.28,463.59 516.46,462.49C518.64,461.4 524.08,456.9 528.55,452.5C533.03,448.1 537.54,443.03 538.59,441.24C539.64,439.44 540.72,437.99 541,438.01C541.27,438.03 542.47,435.9 543.67,433.28C544.86,430.65 546.8,426.02 547.99,423C549.17,419.98 549.94,416.6 549.69,415.5C549.32,413.9 549.21,413.85 549.12,415.25ZM323.12,429.25C323.02,435.66 322.659,432.864 321.419,432.454C320.589,432.184 313.309,437.562 313.579,436.642C313.819,435.822 312.11,438.1 310.83,440.06C309.55,442.02 306.7,445.78 304.5,448.42C302.3,451.07 297.57,455.15 294,457.51C290.42,459.86 285.36,462.51 282.75,463.39C280.14,464.28 275.64,465.28 272.75,465.63C269.23,466.06 264.86,465.67 259.5,464.47C253.19,463.05 249.93,461.6 244.07,457.58C239.57,454.5 234.95,450.24 232.32,446.75C229.52,443.02 228.381,439.606 227.411,439.926C226.581,440.196 222.514,439.218 222.514,439.768C222.514,440.318 218.493,440.011 217.533,439.701C216.573,439.381 217.281,442.05 213.841,443.19C208.761,444.87 208.7,446.77 207.41,445.75C206.06,444.69 205.91,444.77 206.41,446.25C206.73,447.21 208.847,451.057 208.867,451.747C208.887,452.437 211.184,456.051 213.364,459.281C215.544,462.511 219.52,466.34 222,468.91C224.47,471.48 228.3,474.97 230.5,476.68C232.7,478.38 236.75,480.79 239.5,482.02C242.25,483.25 245.17,484.59 246,484.99C246.82,485.4 249.97,486.29 253,486.98C256.39,487.75 262.33,488.05 268.5,487.75C274.64,487.46 280.82,486.5 284.5,485.27C287.8,484.17 292.07,482.47 294,481.48C295.92,480.5 298.84,478.75 300.49,477.6C302.13,476.44 305.39,473.48 307.74,471C310.08,468.52 313.73,463.12 315.85,459C317.96,454.87 320.44,449.02 321.36,446C322.27,442.98 323.37,437.57 323.79,434C324.21,430.43 324.256,426.318 324.08,424.636C323.658,420.606 323.039,418.944 323.039,418.944C323.039,418.944 323.172,425.944 323.12,429.25Z" style="fill:rgb(222,124,82);fill-rule:nonzero;"/>
        <path id="Path-8" serif:id="Path 8" d="M504,347.22C505.38,347.82 515.58,358.57 517.25,359.86C518.76,361.04 520,362.67 520,363.5C520,364.32 520.45,365 521,365C521.55,365 522,365.67 522,366.5C522,367.32 522.45,368 523,368C523.55,368 524,369.35 524,371C524,372.65 524.34,374 524.75,373.99C525.16,373.99 526.17,376.13 527,378.74C528.03,382 528.47,387.43 528.4,396C528.32,407.46 528.07,409.08 525.37,415.5C523.75,419.35 520.92,424.75 519.07,427.5C517.22,430.25 514.09,434.3 512.11,436.5C509.58,439.31 510.14,438.96 514.01,435.3C518.38,431.16 519.86,430.3 521.25,431.05C522.21,431.57 523.79,431.93 524.75,431.84C525.71,431.76 527.85,432.23 529.5,432.9C531.15,433.57 534.5,434.2 536.94,434.31C541.09,434.49 541.48,434.28 543.09,431C544.03,429.07 545.81,425.02 547.04,422C548.56,418.26 549.66,412.34 550.48,403.5C551.57,391.86 551.52,389.98 549.99,385.5C549.06,382.75 547.5,378.92 546.52,377C545.55,375.07 543.12,371.5 541.13,369.05C539.13,366.6 536.94,364.02 536.25,363.3C535.56,362.59 535.34,362.01 535.75,362.01C536.16,362.02 538.3,363.71 540.5,365.76C542.021,367.182 543.153,368.25 543.153,368.25C543.264,368.271 542.584,367.189 540.169,364.766C537.617,362.205 532.76,358.14 531.25,357.09C529.74,356.04 525.35,353.76 521.5,352.03C517.65,350.31 512.02,348.25 509,347.47C505.98,346.68 503.05,346.06 502.5,346.09C501.95,346.11 502.62,346.63 504,347.22ZM212.01,385.25C210.35,388.14 208.06,392.97 206.91,396C205.76,399.02 204.15,404.87 203.33,409C202.34,413.98 201.606,419.516 201.976,425.166C202.286,429.836 203.1,436.633 203.98,439.663C204.87,442.683 206.203,446.654 206.843,447.374C207.783,448.434 209.71,446.7 215,444.98C218.58,443.81 228.303,440.243 228.303,440.243C228.303,440.243 224.784,433.942 224.46,431.5C224.001,428.048 222.51,422.53 222.23,415C221.96,407.98 222.26,401.36 223,398C223.67,394.97 224.66,391.37 225.21,390C225.75,388.62 225.98,386.26 225.73,384.75C225.47,383.24 231.773,366.085 231.597,365.491C231.215,364.196 227.315,367.513 227.315,367.513C227.315,367.513 220.967,372.573 220.791,372.781C220.699,372.889 218.112,376.002 217.599,376.379C216.873,376.912 213.67,382.36 212.01,385.25ZM419.94,393.9C418.75,395.5 417.83,397.41 417.9,398.15C417.97,398.89 417.58,399.95 417.03,400.5C416.48,401.05 415.36,404.65 414.53,408.5C413.71,412.35 413.01,416.17 412.99,417C412.96,417.82 413.29,418.14 413.72,417.71C414.15,417.27 415.23,419.97 416.12,423.71C417.01,427.44 417.74,432.447 418.67,434.097C419.6,435.747 420.84,435.6 420.49,434.5C420.14,433.4 419.586,432.107 419.566,431.837C419.536,431.557 419.8,430.37 419.84,429C419.9,426.98 420.16,426.74 421.21,427.74C421.92,428.43 422.85,428.65 423.28,428.24C423.71,427.83 424.06,428.17 424.06,429C424.06,430.16 424.28,430.11 425.03,428.75C425.56,427.79 426.68,427 427.5,427C428.33,427 429.19,426.44 429.42,425.75C429.76,424.75 429.86,424.75 429.92,425.75C429.96,426.44 430.45,427 431,427C431.55,427 430.6,423.74 428.9,419.75C426.52,414.19 425.56,409.99 424.79,401.75C424.23,395.84 423.4,391 422.95,391C422.49,391 421.14,392.31 419.94,393.9ZM317.58,407.63C317.89,409.21 317.6,414.1 316.94,418.5C316.29,422.9 314.98,428.75 314.03,431.5C313.08,434.25 311.898,437.36 312.198,438.19C312.608,439.3 313.406,439.147 314.496,439.147C315.586,439.147 316.56,438.94 317.07,438.25C317.58,437.56 318.45,437.22 319,437.5C319.55,437.77 320,437.55 320,437C320,436.45 320.68,436.22 321.5,436.5C322.74,436.91 323.06,435.43 323.37,427.75C323.67,420.31 323.32,417.24 321.62,412.06C320.45,408.52 318.95,405.43 318.27,405.19C317.4,404.89 317.2,405.62 317.58,407.63ZM489,449.62C486.53,450.41 480.68,451.43 476,451.89C468.66,452.62 468.25,452.75 473,452.85C476.03,452.91 481.43,452.36 485,451.62C488.58,450.89 492.4,449.78 493.5,449.17C494.6,448.56 495.05,448.09 494.5,448.13C493.95,448.17 491.48,448.84 489,449.62ZM376.678,468.257C374.621,467.429 367.701,467.206 365,468.563C363.6,469.266 363.087,473.099 364.5,474.5C365.115,475.11 366.35,476.67 368,477.5C370.67,478.83 371.33,478.83 374,477.5C375.65,476.67 377.45,475.1 378,474C378.55,472.9 379,471.77 379,471.5C379,471.22 378.418,468.956 376.678,468.257Z" style="fill:rgb(170,77,54);fill-rule:nonzero;"/>
    </g>
</svg>
